<svg id="SvgjsSvg1001" width="288" height="288" xmlns="http://www.w3.org/2000/svg" version="1.1" xmlns:xlink="http://www.w3.org/1999/xlink" xmlns:svgjs="http://svgjs.com/svgjs"><defs id="SvgjsDefs1002"></defs><g id="SvgjsG1008"><svg xmlns="http://www.w3.org/2000/svg" version="1.0" viewBox="0 0 400 400" width="288" height="288"><path d="M2120 3765 c-108 -20 -235 -59 -339 -104 -438 -188 -702 -529 -807-1042 -21 -103 -26 -161 -31 -349 -3 -138 -1 -271 6 -343 41 -416 164 -848
365 -1272 83 -175 92 -192 101 -183 4 4 27 105 50 225 24 120 53 256 65 302
61 238 168 429 326 581 128 123 233 186 498 301 109 47 272 142 369 215 91 69
236 219 290 301 107 160 160 304 176 477 41 433 -244 808 -678 890 -101 19
-287 20 -391 1z m345 -439 c201 -53 320 -235 286 -438 -43 -262 -255 -470
-652 -642 -252 -109 -436 -232 -596 -399 -45 -47 -84 -83 -87 -79 -23 38 -50
353 -43 517 24 567 273 907 757 1034 90 24 260 27 335 7z" transform="matrix(.1 0 0 -.1 0 400)" fill="#c10000" class="color000 svgShape"></path></svg></g></svg>